<svg preserveAspectRatio="none" width="100%" height="100%" overflow="visible" style="display: block;" viewBox="0 0 103 103" fill="none" xmlns="http://www.w3.org/2000/svg">
<g id="Group">
<path id="Vector" d="M81.92 0H20.48C9.16921 0 0 9.16921 0 20.48V81.92C0 93.2308 9.16921 102.4 20.48 102.4H81.92C93.2308 102.4 102.4 93.2308 102.4 81.92V20.48C102.4 9.16921 93.2308 0 81.92 0Z" fill="var(--fill-0, #EA7A24)"/>
<path id="Vector_2" d="M19.2 83.2H32L38.4 70.4H25.6L19.2 83.2Z" fill="var(--fill-0, #ADB933)"/>
<path id="Vector_3" d="M34.56 80.64C36.6808 80.64 38.4 78.9208 38.4 76.8C38.4 74.6792 36.6808 72.96 34.56 72.96C32.4392 72.96 30.72 74.6792 30.72 76.8C30.72 78.9208 32.4392 80.64 34.56 80.64Z" fill="var(--fill-0, #EDDCCA)"/>
<path id="Vector_4" d="M48.64 64L61.44 61.44L64 48.64L51.2 51.2L48.64 64Z" fill="var(--fill-0, #ADB933)"/>
<path id="Vector_5" d="M56.32 60.16C58.4408 60.16 60.16 58.4408 60.16 56.32C60.16 54.1992 58.4408 52.48 56.32 52.48C54.1992 52.48 52.48 54.1992 52.48 56.32C52.48 58.4408 54.1992 60.16 56.32 60.16Z" fill="var(--fill-0, #EDDCCA)"/>
<path id="Vector_6" d="M35.84 48.64L46.08 44.8L48.64 33.28L38.4 37.12L35.84 48.64Z" fill="var(--fill-0, #35383D)"/>
<path id="Vector_7" d="M42.24 44.16C44.0073 44.16 45.44 42.7273 45.44 40.96C45.44 39.1927 44.0073 37.76 42.24 37.76C40.4727 37.76 39.04 39.1927 39.04 40.96C39.04 42.7273 40.4727 44.16 42.24 44.16Z" fill="var(--fill-0, #EDDCCA)"/>
<path id="Vector_8" d="M57.6 35.84L70.4 33.28L71.68 20.48L58.88 23.04L57.6 35.84Z" fill="var(--fill-0, #ADB933)"/>
<path id="Vector_9" d="M64 32C66.1208 32 67.84 30.2808 67.84 28.16C67.84 26.0392 66.1208 24.32 64 24.32C61.8792 24.32 60.16 26.0392 60.16 28.16C60.16 30.2808 61.8792 32 64 32Z" fill="var(--fill-0, #EDDCCA)"/>
<path id="Vector_10" d="M83.2 29.44C88.8554 29.44 93.44 24.8554 93.44 19.2C93.44 13.5446 88.8554 8.96 83.2 8.96C77.5446 8.96 72.96 13.5446 72.96 19.2C72.96 24.8554 77.5446 29.44 83.2 29.44Z" fill="var(--fill-0, #35383D)"/>
<path id="Vector_11" d="M83.2 24.32C86.0277 24.32 88.32 22.0277 88.32 19.2C88.32 16.3723 86.0277 14.08 83.2 14.08C80.3723 14.08 78.08 16.3723 78.08 19.2C78.08 22.0277 80.3723 24.32 83.2 24.32Z" fill="var(--fill-0, #EDDCCA)"/>
<path id="Vector_12" opacity="0.4" d="M28.16 76.8C39.2533 68.2667 48.64 61.44 56.32 56.32C52.9067 48.64 48.2133 43.52 42.24 40.96C48.2133 37.5467 55.4667 33.28 64 28.16L78.08 19.2" stroke="var(--stroke-0, #35383D)" stroke-width="2.56" stroke-dasharray="3.84 3.84"/>
</g>
</svg>
